<svg width="28" height="24" viewBox="0 0 28 24" fill="none"
	xmlns="http://www.w3.org/2000/svg">
	<path
		d="M12.4125 3.34125C12.9395 3.28013 13.4695 3.24966 14 3.25C19.83 3.25 24.5 6.87875 26.5 12C26.0159 13.2457 25.3617 14.4185 24.5562 15.485M7.15 5.14875C4.6 6.705 2.625 9.11625 1.5 12C3.5 17.1213 8.17 20.75 14 20.75C16.4152 20.7627 18.7865 20.105 20.85 18.85M11.35 9.35C11.0018 9.69825 10.7255 10.1117 10.537 10.5667C10.3486 11.0217 10.2516 11.5094 10.2516 12.0019C10.2516 12.4944 10.3486 12.9821 10.537 13.4371C10.7255 13.8921 11.0018 14.3055 11.35 14.6538C11.6982 15.002 12.1117 15.2782 12.5667 15.4667C13.0217 15.6552 13.5094 15.7522 14.0019 15.7522C14.4944 15.7522 14.9821 15.6552 15.4371 15.4667C15.8921 15.2782 16.3055 15.002 16.6538 14.6538"
		stroke="#F8F8F8" stroke-width="2.5" stroke-linecap="round"
		stroke-linejoin="round" />
	<path d="M4 2L24 22" stroke="#F8F8F8" stroke-width="2.5"
		stroke-linecap="round" />
</svg>