<svg width="25" height="17" viewBox="0 0 25 17" fill="none"
	xmlns="http://www.w3.org/2000/svg">
	<path
		d="M24.1514 8.18359C24.1172 8.10645 23.29 6.27148 21.4512 4.43262C19.001 1.98242 15.9063 0.6875 12.5 0.6875C9.09376 0.6875 5.99903 1.98242 3.54883 4.43262C1.70997 6.27148 0.878912 8.10938 0.848639 8.18359C0.804218 8.28351 0.781265 8.39163 0.781265 8.50098C0.781265 8.61032 0.804218 8.71844 0.848639 8.81836C0.882818 8.89551 1.70997 10.7295 3.54883 12.5684C5.99903 15.0176 9.09376 16.3125 12.5 16.3125C15.9063 16.3125 19.001 15.0176 21.4512 12.5684C23.29 10.7295 24.1172 8.89551 24.1514 8.81836C24.1958 8.71844 24.2187 8.61032 24.2187 8.50098C24.2187 8.39163 24.1958 8.28351 24.1514 8.18359ZM12.5 14.75C9.49415 14.75 6.86817 13.6572 4.69434 11.5029C3.80239 10.6159 3.04355 9.60445 2.44141 8.5C3.04339 7.39545 3.80225 6.38396 4.69434 5.49707C6.86817 3.34277 9.49415 2.25 12.5 2.25C15.5059 2.25 18.1318 3.34277 20.3057 5.49707C21.1994 6.38375 21.9599 7.39523 22.5635 8.5C21.8594 9.81445 18.792 14.75 12.5 14.75ZM12.5 3.8125C11.5729 3.8125 10.6666 4.08742 9.89577 4.60249C9.12491 5.11756 8.52411 5.84964 8.16932 6.70617C7.81453 7.5627 7.72171 8.5052 7.90257 9.41449C8.08344 10.3238 8.52988 11.159 9.18544 11.8146C9.841 12.4701 10.6762 12.9166 11.5855 13.0974C12.4948 13.2783 13.4373 13.1855 14.2938 12.8307C15.1504 12.4759 15.8824 11.8751 16.3975 11.1042C16.9126 10.3334 17.1875 9.4271 17.1875 8.5C17.1862 7.25719 16.6919 6.06566 15.8131 5.18686C14.9343 4.30807 13.7428 3.81379 12.5 3.8125ZM12.5 11.625C11.8819 11.625 11.2778 11.4417 10.7638 11.0983C10.2499 10.755 9.84941 10.2669 9.61288 9.69589C9.37636 9.12487 9.31447 8.49653 9.43505 7.89034C9.55563 7.28415 9.85326 6.72733 10.2903 6.29029C10.7273 5.85325 11.2842 5.55562 11.8903 5.43505C12.4965 5.31447 13.1249 5.37635 13.6959 5.61288C14.2669 5.8494 14.755 6.24994 15.0983 6.76384C15.4417 7.27775 15.625 7.88193 15.625 8.5C15.625 9.3288 15.2958 10.1237 14.7097 10.7097C14.1237 11.2958 13.3288 11.625 12.5 11.625Z"
		fill="#F8F8F8" />
</svg>