<svg width="25" height="25" viewBox="0 0 25 25" fill="none"
	xmlns="http://www.w3.org/2000/svg">
	<path fill-rule="evenodd" clip-rule="evenodd"
		d="M12.1875 2.92466e-07C5.4575 2.92466e-07 0 5.4575 0 12.1875C0 18.9175 5.4575 24.375 12.1875 24.375C18.9175 24.375 24.375 18.9175 24.375 12.1875C24.3739 11.3709 24.2944 10.5564 24.1375 9.755C24.0953 9.54232 23.9807 9.35085 23.8132 9.21319C23.6456 9.07553 23.4356 9.00019 23.2188 9H12.1875C11.9389 9 11.7004 9.09877 11.5246 9.27459C11.3488 9.4504 11.25 9.68886 11.25 9.9375V14.4375C11.25 14.955 11.67 15.375 12.1875 15.375H17.0413C16.6851 15.9161 16.2416 16.3943 15.7288 16.79H15.7263L15.7288 16.7925C14.7152 17.5772 13.4693 18.002 12.1875 18C10.6459 18 9.1675 17.3876 8.07744 16.2976C6.98739 15.2075 6.375 13.7291 6.375 12.1875C6.375 10.6459 6.98739 9.1675 8.07744 8.07744C9.1675 6.98739 10.6459 6.375 12.1875 6.375C13.6675 6.375 15.0125 6.9325 16.0425 7.8475C16.2212 8.00654 16.454 8.09124 16.6931 8.08427C16.9322 8.0773 17.1596 7.97918 17.3288 7.81L20.51 4.6275C20.599 4.53848 20.6692 4.43244 20.7163 4.31572C20.7635 4.19899 20.7867 4.07396 20.7844 3.94808C20.7822 3.82221 20.7547 3.69807 20.7034 3.58308C20.6522 3.46808 20.5783 3.36458 20.4862 3.27875C18.2368 1.17156 15.2698 -0.000676002 12.1875 2.92466e-07ZM16.19 18.75C15.307 19.2892 14.3241 19.6445 13.3004 19.7947C12.2768 19.9448 11.2333 19.8867 10.2326 19.6239C9.2319 19.361 8.29459 18.8988 7.47685 18.2649C6.65912 17.631 5.9778 16.8386 5.47375 15.935L3.3775 17.55C4.29744 19.0621 5.59124 20.3117 7.13427 21.1787C8.67731 22.0457 10.4176 22.5007 12.1875 22.5C14.4637 22.5 16.5688 21.7625 18.275 20.5125L16.19 18.75ZM19.6937 19.2575C21.4991 17.3465 22.5033 14.8164 22.5 12.1875C22.5 11.7525 22.4712 11.3075 22.4187 10.875H13.125V13.5H18.545C18.695 13.5 18.8427 13.536 18.9759 13.605C19.1091 13.6739 19.2238 13.7738 19.3104 13.8963C19.3969 14.0187 19.4529 14.1602 19.4735 14.3087C19.4941 14.4573 19.4787 14.6086 19.4287 14.75C19.0564 15.8007 18.4607 16.7581 17.6825 17.5562L19.6937 19.2575ZM3.4625 6.68875C4.39114 5.21408 5.67859 3.99901 7.20447 3.15715C8.73034 2.3153 10.4448 1.87416 12.1875 1.875C14.5525 1.875 16.725 2.6775 18.4663 4.02L16.5912 5.895C15.3027 4.98621 13.7643 4.49888 12.1875 4.5C10.857 4.49947 9.54916 4.84443 8.39201 5.50112C7.23486 6.15781 6.26806 7.10372 5.58625 8.24625L3.4625 6.68875ZM2.6 8.38125C2.11934 9.5926 1.87331 10.8843 1.875 12.1875C1.87374 13.4317 2.09821 14.6659 2.5375 15.83L4.74625 14.1275C4.58205 13.4939 4.4993 12.842 4.5 12.1875C4.5 11.43 4.61 10.6975 4.81375 10.005L2.6 8.38125Z"
		fill="#F8F8F8" />
</svg>
	